<?xml version="1.0" encoding="utf-8"?>
<!-- Generator: Adobe Illustrator 19.1.0, SVG Export Plug-In . SVG Version: 6.00 Build 0)  -->
<!DOCTYPE svg PUBLIC "-//W3C//DTD SVG 1.1//EN" "http://www.w3.org/Graphics/SVG/1.1/DTD/svg11.dtd">
<svg version="1.1" id="Layer_1" xmlns="http://www.w3.org/2000/svg" xmlns:xlink="http://www.w3.org/1999/xlink" x="0px" y="0px"
	 width="960px" height="560px" viewBox="0 0 960 560" style="enable-background:new 0 0 960 560;" xml:space="preserve">
<style type="text/css">
	.st0{font-family:'MyriadPro-Regular';}
	.st1{font-size:12px;}
	.st2{fill:#B0BDFF;stroke:#FFFFFF;stroke-miterlimit:10;}
	.st3{font-size:9.3369px;}
</style>
<text transform="matrix(1 0 0 1 33.8247 24.9278)" class="st0 st1">Archive</text>
<path class="st2" d="M299.18,351.37H36.51c-5.47,0-9.9-4.43-9.9-9.9V45.49c0-5.47,4.43-9.9,9.9-9.9h262.67c5.47,0,9.9,4.43,9.9,9.9
	v295.97C309.08,346.93,304.65,351.37,299.18,351.37z"/>
<path class="st2" d="M199.18,138.85H47.85c-5.47,0-9.9-4.43-9.9-9.9V85.35c0-5.47,4.43-9.9,9.9-9.9h151.32c5.47,0,9.9,4.43,9.9,9.9
	v43.59C209.08,134.41,204.65,138.85,199.18,138.85z"/>
<path class="st2" d="M199.18,213.07H47.85c-5.47,0-9.9-4.43-9.9-9.9v-43.59c0-5.47,4.43-9.9,9.9-9.9h151.32c5.47,0,9.9,4.43,9.9,9.9
	v43.59C209.08,208.64,204.65,213.07,199.18,213.07z"/>
<path class="st2" d="M199.18,315.36H47.85c-5.47,0-9.9-4.43-9.9-9.9l0,0c0-5.47,4.43-9.9,9.9-9.9h151.32c5.47,0,9.9,4.43,9.9,9.9
	l0,0C209.08,310.92,204.65,315.36,199.18,315.36z"/>
<path class="st2" d="M292.48,69.83H43.73c-5.47,0-9.9-4.43-9.9-9.9v0c0-5.47,4.43-9.9,9.9-9.9h248.75c5.47,0,9.9,4.43,9.9,9.9v0
	C302.38,65.39,297.95,69.83,292.48,69.83z"/>
<path class="st2" d="M292.48,343.54H43.73c-5.47,0-9.9-4.43-9.9-9.9l0,0c0-5.47,4.43-9.9,9.9-9.9h248.75c5.47,0,9.9,4.43,9.9,9.9
	l0,0C302.38,339.1,297.95,343.54,292.48,343.54z"/>
<path class="st2" d="M292.48,315.36h-62.66c-5.47,0-9.9-4.43-9.9-9.9V85.35c0-5.47,4.43-9.9,9.9-9.9h62.66c5.47,0,9.9,4.43,9.9,9.9
	v220.1C302.38,310.92,297.95,315.36,292.48,315.36z"/>
<path class="st2" d="M199.18,288.33H47.85c-5.47,0-9.9-4.43-9.9-9.9v-43.59c0-5.47,4.43-9.9,9.9-9.9h151.32c5.47,0,9.9,4.43,9.9,9.9
	v43.59C209.08,283.9,204.65,288.33,199.18,288.33z"/>
<path class="st2" d="M89.38,133.18h-33.8c-5.47,0-9.9-4.43-9.9-9.9v-21.94c0-5.47,4.43-9.9,9.9-9.9h33.8c5.47,0,9.9,4.43,9.9,9.9
	v21.94C99.29,128.74,94.85,133.18,89.38,133.18z"/>
<path class="st2" d="M194.15,132.66h-78.78c-5.47,0-9.9-4.43-9.9-9.9v-21.43c0-5.47,4.43-9.9,9.9-9.9h78.78c5.47,0,9.9,4.43,9.9,9.9
	v21.43C204.06,128.23,199.62,132.66,194.15,132.66z"/>
<text transform="matrix(1 0 0 1 219.9072 44.8636)" class="st0 st3">casawp-archive.php</text>
<text transform="matrix(1 0 0 1 128.2164 62.9225)" class="st0 st3">casawp_before_content</text>
<text transform="matrix(1 0 0 1 128.2164 337.2421)" class="st0 st3">casawp_after_content</text>
<text transform="matrix(1 0 0 1 123.5155 87.1316)" class="st0 st3">archive-single.phtml</text>
<text transform="matrix(1 0 0 1 110.1135 103.111)" class="st0 st3">quick-infos-table.phtml</text>
<text transform="matrix(1 0 0 1 49.2881 107.1442)"><tspan x="0" y="0" class="st0 st3">featured-</tspan><tspan x="0" y="11.2" class="st0 st3">image.phtml</tspan></text>
<text transform="matrix(1 0 0 1 222.9996 91.4227)" class="st0 st3">archive-filter.phtml</text>
<text transform="matrix(1 0 0 1 71.2474 308.2656)" class="st0 st3">archive-pagination.phtml</text>
<text transform="matrix(1 0 0 1 363.2061 24.9278)" class="st0 st1">Single</text>
<path class="st2" d="M628.56,413.37H365.89c-5.47,0-9.9-4.43-9.9-9.9V45.49c0-5.47,4.43-9.9,9.9-9.9h262.67c5.47,0,9.9,4.43,9.9,9.9
	v357.97C638.46,408.93,634.03,413.37,628.56,413.37z"/>
<path class="st2" d="M621.86,405.54H373.11c-5.47,0-9.9-4.43-9.9-9.9V62.42c0-5.47,4.43-9.9,9.9-9.9h248.75c5.47,0,9.9,4.43,9.9,9.9
	v333.22C631.76,401.1,627.33,405.54,621.86,405.54z"/>
<text transform="matrix(1 0 0 1 549.2886 46.8636)" class="st0 st3">casawp-single.php</text>
<text transform="matrix(1 0 0 1 570.4226 63.9222)" class="st0 st3">single.phtml</text>
<path class="st2" d="M616.7,90.64H378.67c-5.47,0-9.9-4.43-9.9-9.9v0c0-5.47,4.43-9.9,9.9-9.9H616.7c5.47,0,9.9,4.43,9.9,9.9v0
	C626.61,86.2,622.17,90.64,616.7,90.64z"/>
<path class="st2" d="M524.44,127.88H378.67c-5.47,0-9.9-4.43-9.9-9.9v-2.7c0-5.47,4.43-9.9,9.9-9.9h145.77c5.47,0,9.9,4.43,9.9,9.9
	v2.7C534.34,123.44,529.91,127.88,524.44,127.88z"/>
<path class="st2" d="M612.78,125.05H549.8c-5.47,0-9.9-4.43-9.9-9.9v-2.13c0-5.47,4.43-9.9,9.9-9.9h62.98c5.47,0,9.9,4.43,9.9,9.9
	v2.13C622.69,120.61,618.25,125.05,612.78,125.05z"/>
<text transform="matrix(1 0 0 1 520.402 82.9222)" class="st0 st3">single-pagination.phtml</text>
<text transform="matrix(1 0 0 1 547.1133 117.0897)" class="st0 st3">single-pagination.phtml</text>
<path class="st2" d="M612.78,238.96H549.8c-5.47,0-9.9-4.43-9.9-9.9v-64.99c0-5.47,4.43-9.9,9.9-9.9h62.98c5.47,0,9.9,4.43,9.9,9.9
	v64.99C622.69,234.53,618.25,238.96,612.78,238.96z"/>
<path class="st2" d="M610.72,204.96h-57.33c-5.47,0-9.9-4.43-9.9-9.9v-3.7c0-5.47,4.43-9.9,9.9-9.9h57.33c5.47,0,9.9,4.43,9.9,9.9
	v3.7C620.63,200.53,616.19,204.96,610.72,204.96z"/>
<path class="st2" d="M612.78,270H549.8c-5.47,0-9.9-4.43-9.9-9.9v-7.04c0-5.47,4.43-9.9,9.9-9.9h62.98c5.47,0,9.9,4.43,9.9,9.9v7.04
	C622.69,265.57,618.25,270,612.78,270z"/>
<text transform="matrix(1 0 0 1 547.1133 141.8553)" class="st0 st3">urls</text>
<text transform="matrix(1 0 0 1 547.1134 171.7522)" class="st0 st3">contact-form.phtml</text>
<text transform="matrix(1 0 0 1 552.7835 195.3996)" class="st0 st3">contact-form-element.phtml</text>
<text transform="matrix(1 0 0 1 547.1135 258.6594)" class="st0 st3">seller.phtml</text>
<path class="st2" d="M612.78,301H549.8c-5.47,0-9.9-4.43-9.9-9.9v-7.04c0-5.47,4.43-9.9,9.9-9.9h62.98c5.47,0,9.9,4.43,9.9,9.9v7.04
	C622.69,296.57,618.25,301,612.78,301z"/>
<text transform="matrix(1 0 0 1 547.1135 289.6594)" class="st0 st3">sales-person.phtml</text>
<text transform="matrix(1 0 0 1 547.1135 323.7771)" class="st0 st3">all-share-widgets</text>
<text transform="matrix(1 0 0 1 376.0721 118.0895)" class="st0 st3">gallery.phtml</text>
<path class="st2" d="M524.44,397.12H378.67c-5.47,0-9.9-4.43-9.9-9.9V144.4c0-5.47,4.43-9.9,9.9-9.9h145.77c5.47,0,9.9,4.43,9.9,9.9
	v242.81C534.34,392.68,529.91,397.12,524.44,397.12z"/>
<path class="st2" d="M520.47,179.07H383.94c-5.47,0-9.9-4.43-9.9-9.9v-2.43c0-5.47,4.43-9.9,9.9-9.9h136.53c5.47,0,9.9,4.43,9.9,9.9
	v2.43C530.37,174.64,525.94,179.07,520.47,179.07z"/>
<text transform="matrix(1 0 0 1 378.6494 149.5535)" class="st0 st3">tabable.phtml</text>
<text transform="matrix(1 0 0 1 382.9057 171.7523)" class="st0 st3">basic-boxes.phtml</text>
<path class="st2" d="M520.47,204.96H383.94c-5.47,0-9.9-4.43-9.9-9.9v-2.97c0-5.47,4.43-9.9,9.9-9.9h136.53c5.47,0,9.9,4.43,9.9,9.9
	v2.97C530.37,200.53,525.94,204.96,520.47,204.96z"/>
<text transform="matrix(1 0 0 1 381.6092 198.0554)" class="st0 st3">map.phtml</text>
<path class="st2" d="M520.47,390.31H383.94c-5.47,0-9.9-4.43-9.9-9.9V245.9c0-5.47,4.43-9.9,9.9-9.9h136.53c5.47,0,9.9,4.43,9.9,9.9
	v134.5C530.37,385.88,525.94,390.31,520.47,390.31z"/>
<path class="st2" d="M517.4,313.51H388.55c-5.47,0-9.9-4.43-9.9-9.9l0-10.52c0-5.47,4.43-9.9,9.9-9.9H517.4c5.47,0,9.9,4.43,9.9,9.9
	v10.52C527.31,309.07,522.87,313.51,517.4,313.51z"/>
<text transform="matrix(1 0 0 1 381.6093 223.8521)" class="st0 st3">content</text>
<text transform="matrix(1 0 0 1 382.9059 250.1611)" class="st0 st3">datatable.phtml</text>
<text transform="matrix(1 0 0 1 388.0606 295.9999)"><tspan x="0" y="0" class="st0 st3">datatable-</tspan><tspan x="0" y="11.2" class="st0 st3">property.phtml</tspan></text>
<path class="st2" d="M517.4,278.47H388.55c-5.47,0-9.9-4.43-9.9-9.9l0-2.85c0-5.47,4.43-9.9,9.9-9.9H517.4c5.47,0,9.9,4.43,9.9,9.9
	v2.85C527.31,274.03,522.87,278.47,517.4,278.47z"/>
<text transform="matrix(1 0 0 1 388.0606 270.9624)" class="st0 st3">datatable-offer.phtml</text>
<path class="st2" d="M517.4,339.66H388.55c-5.47,0-9.9-4.43-9.9-9.9l0-2.85c0-5.47,4.43-9.9,9.9-9.9H517.4c5.47,0,9.9,4.43,9.9,9.9
	v2.85C527.31,335.23,522.87,339.66,517.4,339.66z"/>
<path class="st2" d="M517.4,364.93H388.55c-5.47,0-9.9-4.43-9.9-9.9l0-2.85c0-5.47,4.43-9.9,9.9-9.9H517.4c5.47,0,9.9,4.43,9.9,9.9
	v2.85C527.31,360.49,522.87,364.93,517.4,364.93z"/>
<text transform="matrix(1 0 0 1 388.0606 331.1552)" class="st0 st3">features.phtml</text>
<text transform="matrix(1 0 0 1 388.0606 356.6916)" class="st0 st3">distances.phtml</text>
<text transform="matrix(1 0 0 1 388.0606 382.9803)" class="st0 st3">documents</text>
<path class="st2" d="M521.24,179.07h-50.4c-5.47,0-9.9-4.43-9.9-9.9v0c0-5.47,4.43-9.9,9.9-9.9h50.4c5.47,0,9.9,4.43,9.9,9.9v0
	C531.15,174.64,526.72,179.07,521.24,179.07z"/>
<text transform="matrix(1 0 0 1 467.349 171.752)" class="st0 st3">address.phtml</text>
<path class="st2" d="M513.29,308.24h-50.4c-5.47,0-9.9-4.43-9.9-9.9v0c0-5.47,4.43-9.9,9.9-9.9h50.4c5.47,0,9.9,4.43,9.9,9.9v0
	C523.19,303.81,518.76,308.24,513.29,308.24z"/>
<text transform="matrix(1 0 0 1 459.3893 300.9236)" class="st0 st3">address.phtml</text>
</svg>
